<svg id="Layer_1" data-name="Layer 1" xmlns="http://www.w3.org/2000/svg" viewBox="0 0 69 66.45"><defs><style>.cls-1{fill:#fff;}.cls-2{fill:#ffc533;}.cls-3{fill:#ffc10a;}.cls-4{fill:#ffd773;}.cls-5{fill:#ffbe19;}.cls-6{fill:#f90;}.cls-7{fill:#ffa90d;}.cls-8{fill:#ff9012;}.cls-9{fill:#ff8100;}.cls-10{fill:#ff8d00;}.cls-11{fill:#ff7500;}.cls-12{fill:#ff6900;}.cls-13{fill:#ff9217;}.cls-14{fill:#ffcc4d;}.cls-15{fill:#ffb00d;}.cls-16{fill:#ff9f00;}.cls-17{fill:#ff5d00;}.cls-18{fill:#ff7b00;}.cls-19{fill:#ffb233;}.cls-20{fill:#ffb812;}.cls-21{fill:#ffc04d;}.cls-22{fill:#fcb33a;}.cls-23{fill:#ffa100;}.cls-24{fill:#ffb736;}.cls-25{fill:#ffb329;}.cls-26{fill:#ff9500;}.cls-27{fill:#276022;}.cls-28{fill:#2fa004;}.cls-29{fill:#65af05;}.cls-30{fill:#f25100;}.cls-31{fill:#f6ebbe;}.cls-32{fill:#ff8e0a;}.cls-33{fill:#ef6100;}.cls-34{fill:#ed4800;}.cls-35{fill:#ea5f00;}.cls-36{fill:#ff6700;}.cls-37{fill:#ffa10b;}.cls-38{fill:#f77b00;}.cls-39{fill:#f46e00;}.cls-40{fill:#ff911a;}.cls-41{fill:#ff9e1d;}</style></defs><title>coctail-logo</title><path class="cls-1" d="M445.27,262.1c.74,12.48,1.8,25.54,4.39,37.79a.27.27,0,0,0,.52-.07c-.91-12.54-3-25.28-4.82-37.73,0-.05-.1,0-.09,0Z" transform="translate(-445.11 -246.88)"/><path class="cls-1" d="M471,262.06c-.28,6.15-.42,12.31-.73,18.47s-1.21,12.31-1.19,18.43c0,.33.53.43.59.08,1.06-5.75,1.07-11.83,1.32-17.67.28-6.43.42-12.87.16-19.31a.08.08,0,0,0-.16,0Z" transform="translate(-445.11 -246.88)"/><path class="cls-1" d="M469.51,299c-2.61,3.13-6.56,2.67-10.24,2.61-3-.05-6.31.15-8.58-2.25-.5-.53-1.34.3-.8.8,3,2.79,7.1,2.41,10.9,2.42,3.24,0,7.74.33,8.92-3.47,0-.11-.12-.21-.2-.12Z" transform="translate(-445.11 -246.88)"/><path class="cls-1" d="M450.33,299.79c1.78-5.35,16.09-4.62,18.85,0,.12.2.39,0,.31-.18-1.44-3.28-6.61-3.77-9.7-3.74s-9-.19-9.52,3.93c0,0,.06,0,.07,0Z" transform="translate(-445.11 -246.88)"/><path class="cls-1" d="M449.9,299.67c-.46.6-.09,1.87,0,2.58a15,15,0,0,0,.38,2.76.43.43,0,0,0,.83-.23,31.65,31.65,0,0,1-.51-3.2c-.08-.61,0-1.57-.61-1.92a0,0,0,0,0,0,0Z" transform="translate(-445.11 -246.88)"/><path class="cls-1" d="M469.14,299.62a9.44,9.44,0,0,0-.27,2.62,10.31,10.31,0,0,0-.1,2.63.33.33,0,0,0,.6.08,4.73,4.73,0,0,0,.39-2.55,11.18,11.18,0,0,0-.26-2.77.2.2,0,0,0-.37,0Z" transform="translate(-445.11 -246.88)"/><path class="cls-1" d="M450.46,305.1c4.38,3.43,15,4.64,19,0a.5.5,0,0,0-.7-.7c-4.58,3.86-12.88,2.46-17.95.22-.27-.12-.62.23-.35.45Z" transform="translate(-445.11 -246.88)"/><path class="cls-1" d="M461.68,257.35c-4.16-.53-12.42-1.31-15.62,2.33-3.79,4.31,6,4.4,8.11,4.59,4.12.36,9,.76,13.06-.21,1.43-.34,3-.89,3.74-2.33,1.78-3.65-4.53-4.59-6.89-4.44-.2,0-.27.33,0,.37,1.18.23,3.23.34,4.22,1.06,5,3.66-1.87,4.47-3.82,4.72a49.87,49.87,0,0,1-11-.15c-.1,0-5.68-.25-6.12-.91-2.39-3.52,4.59-4.23,6.1-4.4,2.76-.31,5.55-.09,8.32-.39a.12.12,0,0,0,0-.24Z" transform="translate(-445.11 -246.88)"/><path class="cls-1" d="M445.18,262.2c-1.17,5.22,13.74,4.47,16.57,4.4s6.81,0,9-2.09c1.21-1.18,1.8-2.69.42-3.88a.38.38,0,0,0-.54.54c3.78,4.07-10.31,4.79-12,4.74-2.8-.08-12.87.13-13.22-3.68,0-.11-.18-.16-.21,0Z" transform="translate(-445.11 -246.88)"/><path class="cls-1" d="M450.25,268.94c-.24,6.15,1.24,12.79,2.11,18.87.1.71,1.16.74,1.47.19l.25-.44a.6.6,0,0,0-.67-.87l-.49.13,1,.78c-.37-6.08-1.22-13-3.32-18.7a.19.19,0,0,0-.37.05Z" transform="translate(-445.11 -246.88)"/><path class="cls-1" d="M453.66,291.66a2.57,2.57,0,0,0-.4,2.08.74.74,0,0,0,1.08.44c.34-.26.73-.71.45-1.16a.37.37,0,0,0-.32-.18l-.26,0h.13l-.27,0,.34.09-.08,0,.34.83a2.57,2.57,0,0,0-.45-2.08.4.4,0,0,0-.56,0Z" transform="translate(-445.11 -246.88)"/><path class="cls-1" d="M463,250.29a113,113,0,0,0-2.6,13c0,.34.54.42.6.08.78-4.35,1.47-8.71,2.28-13.05,0-.18-.24-.26-.28-.08Z" transform="translate(-445.11 -246.88)"/><path class="cls-1" d="M464.88,251.23c-.78,4.12-1.68,8.26-2.34,12.4a.25.25,0,0,0,.49.13,50.06,50.06,0,0,0,2-12.51c0-.11-.17-.13-.19,0Z" transform="translate(-445.11 -246.88)"/><path class="cls-1" d="M463.37,250.57l0-.17a.1.1,0,1,0-.2,0c0,.06,0,.12,0,.17a.08.08,0,0,0,.14,0Z" transform="translate(-445.11 -246.88)"/><path class="cls-1" d="M462.84,250.29a3.75,3.75,0,0,0,1.3,1.58c.53.44,1.29-.28.77-.77a3.89,3.89,0,0,0-1.83-1.13.26.26,0,0,0-.25.32Z" transform="translate(-445.11 -246.88)"/><path class="cls-1" d="M464.81,248.12a1.05,1.05,0,0,0-.13.25.72.72,0,0,0,.06.31,2.63,2.63,0,0,0,.31.56c.15.24.3.48.43.73s.28.83.73.91a.27.27,0,0,0,.28-.11c.4-.53-.3-1.48-.64-1.92l-.39-.47a1.87,1.87,0,0,0-.18-.22l-.13-.09-.09,0c-.06,0-.06,0,0,0,0-.17-.28-.09-.26.07Z" transform="translate(-445.11 -246.88)"/><path class="cls-1" d="M466.62,247.74a9.11,9.11,0,0,0,.67,2.18.47.47,0,0,0,.52.21.31.31,0,0,0,.11,0,.47.47,0,0,0,.21-.52,9.07,9.07,0,0,0-.94-2.07.32.32,0,0,0-.58.24Z" transform="translate(-445.11 -246.88)"/><path class="cls-1" d="M467.07,247.45c2.49.19,5,.15,7.51.19.81,0,5.84-.4,4.12,1.68-.69.83-4.39,0-5.47-.08a45.49,45.49,0,0,0-5.62,0,.25.25,0,0,0,0,.49c3.73.26,7.48-.3,11.2.29a.2.2,0,0,0,.24-.14c.2-.79.32-1.59.47-2.39a.26.26,0,0,0-.24-.32c-4-.21-8.17-.36-12.21-.19a.25.25,0,0,0,0,.49Z" transform="translate(-445.11 -246.88)"/><path class="cls-1" d="M462.48,266.51c-.95,3.77-1,7.87-1.41,11.72-.57,5-1.43,9.93-1.88,14.92,0,.33.51.4.57.08.89-4.39,1.33-8.89,1.83-13.34s1.39-9,1.06-13.36c0-.09-.15-.13-.17,0Z" transform="translate(-445.11 -246.88)"/><path class="cls-1" d="M459.7,266.76c.14,0,.23-.1.35-.11a.07.07,0,0,0,0-.13c-.15-.1-.2-.12-.37,0a.15.15,0,0,0-.07.17l0,.1Z" transform="translate(-445.11 -246.88)"/><path class="cls-1" d="M460.44,266c-1.67,9.15-1.86,18.53-3.95,27.61-.09.4.51.57.61.17,2.16-8.9,3-18.63,3.45-27.76,0-.06-.1-.08-.11,0Z" transform="translate(-445.11 -246.88)"/><path class="cls-1" d="M457.22,293.89a2.12,2.12,0,0,0,2,.24c.35-.11.43-.74,0-.79a4.1,4.1,0,0,0-.95.06c-.3,0-.59-.06-.88,0a.31.31,0,0,0-.22.53Z" transform="translate(-445.11 -246.88)"/><path class="cls-1" d="M462.51,253.31c.49.17,1.33.55,1.83.28a.18.18,0,0,0,0-.27c-.36-.41-1.3-.36-1.81-.38-.22,0-.24.3,0,.37Z" transform="translate(-445.11 -246.88)"/><path class="cls-1" d="M462.34,255.24a3.31,3.31,0,0,0,2.08.35.18.18,0,0,0,.08-.3,3.36,3.36,0,0,0-2.1-.5c-.27,0-.29.36-.06.45Z" transform="translate(-445.11 -246.88)"/><path class="cls-1" d="M461.61,258.36c.55.14,1.36.47,1.92.24.12,0,.21-.22.09-.32a3.45,3.45,0,0,0-2-.33.21.21,0,0,0-.06.41Z" transform="translate(-445.11 -246.88)"/><path class="cls-1" d="M461.25,260.86a6.24,6.24,0,0,0,1.13.11,1,1,0,0,0,.86-.22.18.18,0,0,0,0-.25,1,1,0,0,0-.86-.22,6.25,6.25,0,0,0-1.13.11.24.24,0,0,0,0,.47Z" transform="translate(-445.11 -246.88)"/><path class="cls-1" d="M459.78,269.23l0,0a.32.32,0,0,0,.14.34c.52.37,1.84.62,2.25,0a.22.22,0,0,0-.08-.29,1.54,1.54,0,0,0-.93-.14c-.37,0-.73-.1-1.1-.11a.3.3,0,0,0-.26.15l0,0a.09.09,0,0,0-.06.14Z" transform="translate(-445.11 -246.88)"/><path class="cls-1" d="M459.79,272.51a2.32,2.32,0,0,0,2,0,.22.22,0,0,0,0-.3c-.41-.47-1.48-.42-2-.29-.33.08-.26.49,0,.6Z" transform="translate(-445.11 -246.88)"/><path class="cls-1" d="M459.55,275.07c.36.18,1.93.81,2,0,.07-.43-.44-.44-.73-.47a9.65,9.65,0,0,0-1.17-.14c-.28,0-.43.42-.15.56Z" transform="translate(-445.11 -246.88)"/><path class="cls-1" d="M459.34,278c.41,0,.84,0,1.25.08a1.51,1.51,0,0,0,1-.11.15.15,0,0,0,.05-.2c-.52-.69-1.66-.43-2.37-.26a.25.25,0,0,0,.07.49Z" transform="translate(-445.11 -246.88)"/><path class="cls-1" d="M458.8,280.65a3.41,3.41,0,0,1,1.08.19,3.34,3.34,0,0,0,.92.27.2.2,0,0,0,.19-.25c-.2-1-1.6-1-2.29-.6a.21.21,0,0,0,.1.38Z" transform="translate(-445.11 -246.88)"/><path class="cls-1" d="M459,282.87c.3.13,1.6.63,1.73.07s-1.29-.58-1.6-.55-.39.37-.13.48Z" transform="translate(-445.11 -246.88)"/><path class="cls-1" d="M458.24,285.94c.63.27,1.77.6,2.33,0a.21.21,0,0,0,0-.33,1.63,1.63,0,0,0-.88-.23c-.37,0-.74-.1-1.11-.17s-.73.52-.3.71Z" transform="translate(-445.11 -246.88)"/><path class="cls-1" d="M458,288.5a2,2,0,0,0,.74.29c.31.11.57.23.87,0a.21.21,0,0,0,.07-.27,1.13,1.13,0,0,0-1.7-.15.09.09,0,0,0,0,.1Z" transform="translate(-445.11 -246.88)"/><path class="cls-1" d="M457.22,291.81a2.27,2.27,0,0,0,2-.08.18.18,0,0,0,0-.3,2.27,2.27,0,0,0-2-.08.26.26,0,0,0,0,.45Z" transform="translate(-445.11 -246.88)"/><path class="cls-1" d="M468.89,247.23a1.67,1.67,0,0,0,.11,2c.07.06.23.06.24-.06a2.51,2.51,0,0,0-.07-.79c-.06-.35-.06-.7-.08-1.05a.11.11,0,0,0-.2-.05Z" transform="translate(-445.11 -246.88)"/><path class="cls-1" d="M470.64,247.43c-.09.43-.3,1.12.07,1.46a.21.21,0,0,0,.29,0c.37-.34.16-1,.07-1.46a.22.22,0,0,0-.42,0Z" transform="translate(-445.11 -246.88)"/><path class="cls-1" d="M472.95,247.74c-.17.48-.28,1.73.4,1.9a.17.17,0,0,0,.19-.08c.25-.51,0-1.23-.1-1.76a.25.25,0,0,0-.49-.07Z" transform="translate(-445.11 -246.88)"/><path class="cls-1" d="M475.06,247.85c0,.36,0,1.81.66,1.65s0-1.48-.13-1.79a.29.29,0,0,0-.53.14Z" transform="translate(-445.11 -246.88)"/><path class="cls-1" d="M477.48,247.37c-.29.55-.61,1.73-.1,2.24a.21.21,0,0,0,.33,0,1.81,1.81,0,0,0,.11-1c0-.38,0-.76.07-1.14a.22.22,0,0,0-.41-.11Z" transform="translate(-445.11 -246.88)"/><path class="cls-1" d="M467.06,247.18a3.93,3.93,0,0,0-2.85,1.06c-.73.62-1.7,1.72-1.48,2.73a.25.25,0,0,0,.45.06c.24-.4.32-.86.57-1.26a4.69,4.69,0,0,1,1.08-1.2,10.51,10.51,0,0,1,2.27-1.27c.06,0,0-.11,0-.11Z" transform="translate(-445.11 -246.88)"/><path class="cls-1" d="M467.82,250a2,2,0,0,0-1.16,0,3.08,3.08,0,0,0-1.05.65c-.43.4-1.21,1.39-.71,2a.16.16,0,0,0,.19,0,.9.9,0,0,0,.34-.5,3,3,0,0,1,.58-1,3.57,3.57,0,0,1,1.81-1,.11.11,0,0,0,0-.2Z" transform="translate(-445.11 -246.88)"/><path class="cls-1" d="M460.27,267.76a4,4,0,0,0,2,.32.17.17,0,0,0,.1-.25,1.86,1.86,0,0,0-2.09-.5.22.22,0,0,0,0,.42Z" transform="translate(-445.11 -246.88)"/><polygon class="cls-2" points="27.4 45.41 33.32 40.32 36.76 47.31 27.4 45.41"/><polygon class="cls-3" points="30.83 53.96 27.4 45.41 36.76 47.31 30.83 53.96"/><polygon class="cls-4" points="33.32 40.32 27.4 45.41 25.59 41.3 33.32 40.32"/><polygon class="cls-5" points="36.76 47.31 33.32 40.32 40.97 43.25 36.76 47.31"/><polygon class="cls-6" points="41.59 55.21 36.76 47.31 30.83 53.96 41.59 55.21"/><polygon class="cls-7" points="40.97 43.25 36.76 47.31 41.59 55.21 40.97 43.25"/><polygon class="cls-8" points="46.75 50.32 40.97 43.25 41.59 55.21 46.75 50.32"/><polygon class="cls-9" points="44.52 40.32 40.97 43.25 46.75 50.32 44.52 40.32"/><polygon class="cls-10" points="49.23 48.76 46.75 50.32 44.52 40.32 49.23 48.76"/><polygon class="cls-11" points="47.99 43.96 44.52 40.32 47.15 45.03 47.99 43.96"/><polygon class="cls-12" points="49.23 48.76 47.99 43.96 47.15 45.03 49.23 48.76"/><polygon class="cls-2" points="33.32 40.32 36.57 38.23 40.97 43.25 33.32 40.32"/><polygon class="cls-7" points="44.52 40.32 36.57 38.23 40.97 43.25 44.52 40.32"/><polygon class="cls-13" points="40.52 37.56 36.57 38.23 44.52 40.32 40.52 37.56"/><polygon class="cls-14" points="31.68 37.34 33.32 40.32 36.57 38.23 31.68 37.34"/><polygon class="cls-2" points="25.59 41.3 31.68 37.34 33.32 40.32 25.59 41.3"/><polygon class="cls-14" points="21.05 46.05 27.4 45.41 25.59 41.3 21.05 46.05"/><polygon class="cls-2" points="30.83 53.96 21.05 46.05 27.4 45.41 30.83 53.96"/><polygon class="cls-15" points="25.32 58.81 30.83 53.96 21.05 46.05 25.32 58.81"/><polygon class="cls-16" points="41.59 55.21 36.35 62.1 30.83 53.96 41.59 55.21"/><polygon class="cls-6" points="36.35 62.1 30.83 53.96 25.32 58.81 36.35 62.1"/><polygon class="cls-11" points="44.48 61.3 41.59 55.21 36.35 62.1 44.48 61.3"/><polygon class="cls-9" points="46.75 50.32 41.59 55.21 44.48 61.3 46.75 50.32"/><polygon class="cls-12" points="49.23 54.63 46.75 50.32 49.23 48.76 49.23 54.63"/><polygon class="cls-11" points="44.48 61.3 49.23 54.63 46.75 50.32 44.48 61.3"/><polygon class="cls-12" points="47.55 58.99 49.23 54.63 44.48 61.3 47.55 58.99"/><polygon class="cls-11" points="37.06 65.74 36.35 62.1 44.48 61.3 37.06 65.74"/><polygon class="cls-12" points="44.75 62.36 44.48 61.3 37.06 65.74 44.75 62.36"/><polygon class="cls-17" points="47.55 58.99 44.48 61.3 44.75 62.36 47.55 58.99"/><polygon class="cls-18" points="25.32 58.81 25.28 63.25 36.35 62.1 25.32 58.81"/><polygon class="cls-17" points="31.99 65.79 36.35 62.1 37.06 65.74 31.99 65.79"/><polygon class="cls-12" points="25.28 63.25 36.35 62.1 31.99 65.79 25.28 63.25"/><polygon class="cls-19" points="21.05 46.05 21.1 44.01 25.59 41.3 21.05 46.05"/><polygon class="cls-20" points="26.21 38.81 31.68 37.34 25.59 41.3 26.21 38.81"/><polygon class="cls-3" points="21.1 44.01 26.21 38.81 25.59 41.3 21.1 44.01"/><polygon class="cls-21" points="31.68 37.34 35.46 36.45 36.57 38.23 31.68 37.34"/><polygon class="cls-21" points="40.52 37.56 35.46 36.45 36.57 38.23 40.52 37.56"/><polygon class="cls-21" points="31.68 37.34 30.92 36.63 26.21 38.81 31.68 37.34"/><polygon class="cls-22" points="35.46 36.45 30.92 36.63 31.68 37.34 35.46 36.45"/><polygon class="cls-23" points="21.05 46.05 19.5 48.45 21.1 44.01 21.05 46.05"/><polygon class="cls-23" points="25.32 58.81 20.3 56.67 22.48 50.32 25.32 58.81"/><polygon class="cls-24" points="21.05 46.05 19.5 48.45 22.48 50.32 21.05 46.05"/><polygon class="cls-25" points="20.3 56.67 19.5 48.45 22.48 50.32 20.3 56.67"/><polygon class="cls-26" points="25.28 63.25 20.3 56.67 25.32 58.81 25.28 63.25"/><polygon class="cls-27" points="32.7 36.5 31.81 32.49 32.61 32.05 33.5 36.32 32.7 36.5"/><polygon class="cls-28" points="34.03 36.59 36.52 30.54 42.21 28.67 49.77 30.63 34.03 36.59"/><polygon class="cls-29" points="42.92 36.14 49.77 30.63 34.03 36.59 42.92 36.14"/><path class="cls-30" d="M508.91,292.67l-3.28-3.45-3.79-2.61-4.8-1.05-4.29.17-4.46,2.06-4.84,4.92-1.51,4.21.76,7.79,4.71,6.23,6.36,2.4,4.8,0,7.28-3.2,2.65-3.2,1.6-4.12v-5.56Z" transform="translate(-445.11 -246.88)"/><path class="cls-31" d="M508.11,293.09,505,289.85l-3.55-2.45-4.5-1-4,.16-4.19,1.93-4.54,4.62-1.42,3.95.71,7.3,4.42,5.84,6,2.25,4.5,0,6.83-3,2.49-3,1.5-3.87v-5.21Z" transform="translate(-445.11 -246.88)"/><path class="cls-32" d="M507.08,293.73l-2.79-2.94-3.22-2.22-4.08-.9-3.65.14-3.8,1.76-4.12,4.19-1.29,3.58.64,6.63,4,5.3,5.41,2,4.08,0,6.2-2.72,2.26-2.72,1.36-3.51V297.6Z" transform="translate(-445.11 -246.88)"/><polygon class="cls-31" points="49.1 51.36 51.2 50.27 53.22 52.3 52.39 54.07 50.43 54.86 48.75 53.34 49.1 51.36"/><polygon class="cls-33" points="43.17 40.9 43.65 41.63 47.84 39.69 51.86 39.53 51.93 38.67 47.63 38.84 43.17 40.9"/><polygon class="cls-34" points="38.33 45.83 39.11 46.25 37.69 50.19 38.4 57.5 42.82 63.34 42.29 64.05 37.57 57.82 36.82 50.04 38.33 45.83"/><polygon class="cls-34" points="48.64 66.45 48.78 65.59 53.28 65.55 60.11 62.55 60.72 63.21 53.44 66.41 48.64 66.45"/><polygon class="cls-35" points="64.1 55.68 64.97 55.89 64.97 50.33 63.8 45.79 63 46.21 64.1 50.47 64.1 55.68"/><polygon class="cls-36" points="56.36 40.52 56.73 39.73 60.51 42.34 59.92 42.97 56.36 40.52"/><polygon class="cls-37" points="51.86 40.8 55.95 41.69 51.57 50.64 51.2 50.27 51.86 40.8"/><polygon class="cls-38" points="59.17 43.91 52.25 51.32 52.85 51.92 61.97 46.85 59.17 43.91"/><polygon class="cls-39" points="53.22 52.3 62.97 50.72 61.97 46.85 52.85 51.92 53.22 52.3"/><polygon class="cls-38" points="62.97 55.45 52.85 53.1 52.39 54.07 61.61 58.96 62.97 55.45"/><polygon class="cls-37" points="50.43 54.86 53.15 64.41 56.88 62.86 51.41 54.46 50.43 54.86"/><polygon class="cls-39" points="59.35 61.68 51.93 54.26 52.39 54.07 61.61 58.96 59.35 61.68"/><polygon class="cls-38" points="49.1 51.36 44.41 42.69 48.21 40.94 50.14 50.82 49.1 51.36"/><polygon class="cls-38" points="39.65 57.1 48.75 53.34 48.93 52.3 39 50.47 39.65 57.1"/><polygon class="cls-40" points="43.66 62.4 49.24 53.78 50 54.46 49.07 64.44 43.66 62.4"/><polygon class="cls-41" points="40.29 46.89 48.93 51.76 48.93 52.3 39 50.47 40.29 46.89"/><path class="cls-1" d="M502,275c-.53,1.72-1.35,4.4-.55,6.12a.21.21,0,0,0,.37,0,11,11,0,0,0,.06-2.64,15.83,15.83,0,0,1,.43-3.35A.16.16,0,0,0,502,275Z" transform="translate(-445.11 -246.88)"/><path class="cls-1" d="M508.63,283.26a23.7,23.7,0,0,1,3-1.7c.82-.4,1.92-.62,2.47-1.37a.27.27,0,0,0-.16-.4c-1-.2-2,.52-2.76,1a18.19,18.19,0,0,0-2.78,2.13c-.18.16.06.48.26.34Z" transform="translate(-445.11 -246.88)"/></svg>